nColumns=19
nRows=64
DataType=double
version=3
OpenSimVersion=4.1
endheader
time	ground_force_calcn_r_vx	ground_force_calcn_r_vy	ground_force_calcn_r_vz	ground_force_calcn_r_px	ground_force_calcn_r_py	ground_force_calcn_r_pz	ground_force_calcn_r_mx	ground_force_calcn_r_my	ground_force_calcn_r_mz	ground_force_calcn_l_vx	ground_force_calcn_l_vy	ground_force_calcn_l_vz	ground_force_calcn_l_px	ground_force_calcn_l_py	ground_force_calcn_l_pz	ground_force_calcn_l_mx	ground_force_calcn_l_my	ground_force_calcn_l_mz
0	3.50896	327.214	-38.1371	-0.239611	0	-0.406508	-0.00876599	-0.817437	0.095273	0.889997	287.69	37.6474	-0.226191	0	-0.765603	0.00444225	1.43595	0.18791
0.01	3.40464	327.238	-38.1709	-0.239097	0	-0.406455	-0.00863643	-0.830093	0.0968269	0.770501	287.907	37.7415	-0.225507	0	-0.765759	0.00374028	1.3976	0.183211
0.02	3.27034	327.28	-38.2136	-0.238461	0	-0.406384	-0.00842113	-0.842747	0.0984	0.629933	288.206	37.8653	-0.224713	0	-0.765934	0.00297717	1.36211	0.178958
0.03	3.10438	327.338	-38.2647	-0.237694	0	-0.406296	-0.00810977	-0.855124	0.0999611	0.466363	288.592	38.0217	-0.22381	0	-0.766129	0.00215042	1.33071	0.17532
0.04	2.9067	327.4	-38.323	-0.236799	0	-0.406191	-0.00769844	-0.867126	0.101499	0.277319	289.065	38.2123	-0.222802	0	-0.766339	0.00125088	1.30386	0.172361
0.05	2.6789	327.458	-38.3874	-0.23578	0	-0.406066	-0.00718915	-0.878772	0.103017	0.0598181	289.621	38.438	-0.22169	0	-0.766563	0.000264647	1.28134	0.170057
0.06	2.4233	327.498	-38.4561	-0.234641	0	-0.405921	-0.0065862	-0.890095	0.104519	-0.18921	290.253	38.6987	-0.22048	0	-0.766799	-0.000822932	1.2624	0.168312
0.07	2.14207	327.51	-38.527	-0.233393	0	-0.405756	-0.00589363	-0.901101	0.106002	-0.472435	290.95	38.9936	-0.219173	0	-0.767044	-0.00202307	1.24592	0.166979
0.08	1.83747	327.486	-38.5976	-0.232049	0	-0.405574	-0.0051164	-0.911879	0.107474	-0.791957	291.702	39.3203	-0.217776	0	-0.767298	-0.00334117	1.23066	0.165888
0.09	1.51194	327.42	-38.6654	-0.23062	0	-0.405377	-0.00426043	-0.922624	0.108954	-1.14911	292.494	39.6747	-0.216295	0	-0.767561	-0.00477499	1.21543	0.164864
0.1	1.16762	327.303	-38.7285	-0.229125	0	-0.405169	-0.00333006	-0.933471	0.110454	-1.54417	293.308	40.0504	-0.21474	0	-0.76783	-0.00631321	1.19916	0.163742
0.11	0.806554	327.125	-38.7856	-0.227582	0	-0.40495	-0.00232855	-0.944422	0.111975	-1.97618	294.12	40.4383	-0.213121	0	-0.7681	-0.00793526	1.18103	0.162378
0.12	0.431335	326.876	-38.8367	-0.226015	0	-0.404723	-0.00126061	-0.955318	0.113503	-2.44332	294.909	40.8273	-0.211451	0	-0.768367	-0.00961516	1.16055	0.160667
0.13	0.045386	326.545	-38.8823	-0.224449	0	-0.404491	-0.000134235	-0.9658	0.114999	-2.94329	295.652	41.2053	-0.209747	0	-0.76863	-0.0113263	1.13772	0.158565
0.14	-0.346647	326.13	-38.9231	-0.222909	0	-0.404253	0.00103685	-0.975478	0.116422	-3.47283	296.333	41.5607	-0.208028	0	-0.768883	-0.0130443	1.11305	0.156106
0.15	-0.738972	325.63	-38.9598	-0.221422	0	-0.404012	0.0022331	-0.984024	0.117733	-4.02721	296.934	41.8843	-0.206317	0	-0.769123	-0.0147472	1.08734	0.153376
0.16	-1.12496	325.056	-38.9922	-0.220013	0	-0.40377	0.00343046	-0.991227	0.118903	-4.59957	297.441	42.1693	-0.204635	0	-0.769348	-0.0164168	1.06163	0.150511
0.17	-1.49742	324.422	-39.0194	-0.218707	0	-0.403526	0.00460194	-0.99703	0.119917	-5.18078	297.841	42.4114	-0.203006	0	-0.769554	-0.018042	1.03723	0.147697
0.18	-1.84815	323.744	-39.0393	-0.217523	0	-0.403286	0.00571749	-1.00154	0.120773	-5.75949	298.124	42.6079	-0.201449	0	-0.76974	-0.0196234	1.01575	0.145171
0.19	-2.1684	323.042	-39.0486	-0.216481	0	-0.403049	0.00674517	-1.00487	0.121467	-6.32272	298.288	42.7566	-0.19999	0	-0.769906	-0.0211753	0.998992	0.143196
0.2	-2.44949	322.329	-39.0434	-0.215593	0	-0.402821	0.00765324	-1.00709	0.121988	-6.85638	298.338	42.8558	-0.198649	0	-0.770051	-0.0227232	0.988746	0.142032
0.21	-2.68347	321.621	-39.0198	-0.214869	0	-0.402605	0.00841256	-1.00827	0.122326	-7.3457	298.288	42.9043	-0.197452	0	-0.770172	-0.0242937	0.986497	0.141893
0.22	-2.86344	320.928	-38.9742	-0.214318	0	-0.402403	0.0089982	-1.0085	0.122474	-7.77589	298.155	42.9022	-0.19642	0	-0.77027	-0.0259047	0.993277	0.142925
0.23	-2.98393	320.258	-38.9031	-0.213941	0	-0.402222	0.00939181	-1.008	0.122446	-8.13313	297.963	42.8512	-0.195575	0	-0.770341	-0.0275536	1.00944	0.145172
0.24	-3.04169	319.619	-38.8042	-0.213737	0	-0.402061	0.00958417	-1.0071	0.12227	-8.40514	297.736	42.7549	-0.19494	0	-0.770387	-0.0292102	1.03472	0.148585
0.25	-3.03605	319.013	-38.6759	-0.213704	0	-0.401923	0.00957508	-1.0061	0.121976	-8.58197	297.497	42.6179	-0.194528	0	-0.770405	-0.0308222	1.06846	0.153063
0.26	-2.96841	318.444	-38.5173	-0.213836	0	-0.401808	0.00937161	-1.00537	0.121603	-8.65714	297.26	42.4458	-0.194354	0	-0.770396	-0.0323158	1.10963	0.158444
0.27	-2.84138	317.907	-38.327	-0.214126	0	-0.401715	0.00898462	-1.00524	0.121193	-8.62837	297.034	42.245	-0.194421	0	-0.770361	-0.0336014	1.15674	0.164515
0.28	-2.65794	317.391	-38.1036	-0.214564	0	-0.401648	0.00842499	-1.00605	0.120779	-8.49785	296.817	42.0227	-0.194721	0	-0.770301	-0.0345878	1.2081	0.17104
0.29	-2.42099	316.878	-37.8455	-0.215146	0	-0.401604	0.00770084	-1.00795	0.120381	-8.2722	296.602	41.7847	-0.195243	0	-0.770218	-0.0352017	1.26217	0.177812
0.3	-2.13259	316.347	-37.5506	-0.215864	0	-0.401586	0.0068156	-1.01102	0.120009	-7.96307	296.368	41.5338	-0.195963	0	-0.770114	-0.0354074	1.31779	0.184678
0.31	-1.79399	315.773	-37.2176	-0.216713	0	-0.401593	0.00576801	-1.01527	0.119662	-7.58692	296.079	41.2679	-0.19685	0	-0.769992	-0.0352149	1.37426	0.191546
0.32	-1.40706	315.131	-36.8448	-0.217688	0	-0.401623	0.0045568	-1.02056	0.119323	-7.16419	295.685	40.9799	-0.197868	0	-0.769854	-0.0346784	1.43127	0.198364
0.33	-0.975563	314.392	-36.4312	-0.218783	0	-0.401678	0.00318548	-1.02658	0.118958	-6.71801	295.118	40.6582	-0.198981	0	-0.769701	-0.0338889	1.48871	0.2051
0.34	-0.505793	313.533	-35.9772	-0.219992	0	-0.401756	0.00166604	-1.03275	0.118505	-6.27316	294.294	40.2884	-0.200152	0	-0.769536	-0.0329655	1.54652	0.211716
0.35	-0.00633588	312.526	-35.4855	-0.221307	0	-0.401856	2.10487e-05	-1.03826	0.117888	-5.85496	293.121	39.8539	-0.20134	0	-0.769358	-0.0320498	1.60453	0.218159
0.36	0.512696	311.344	-34.9615	-0.222718	0	-0.401976	-0.00171615	-1.04217	0.117027	-5.48824	291.5	39.3386	-0.202515	0	-0.769169	-0.0313004	1.66247	0.224355
0.37	1.04003	309.957	-34.4123	-0.224213	0	-0.402115	-0.00350113	-1.04343	0.115845	-5.19623	289.332	38.7291	-0.203643	0	-0.76897	-0.0308861	1.71977	0.230203
0.38	1.56283	308.336	-33.8468	-0.22578	0	-0.402272	-0.00527611	-1.04094	0.114266	-4.99872	286.53	38.0174	-0.2047	0	-0.768763	-0.0309778	1.77567	0.235599
0.39	2.06605	306.457	-33.2759	-0.227405	0	-0.402443	-0.00696827	-1.03361	0.112232	-4.91046	283.019	37.2024	-0.205661	0	-0.768555	-0.0317379	1.82924	0.240451
0.4	2.53246	304.307	-32.7133	-0.229069	0	-0.402624	-0.00849235	-1.02046	0.109701	-4.93969	278.742	36.2901	-0.20651	0	-0.768353	-0.0333069	1.87947	0.244694
0.41	2.94393	301.881	-32.1742	-0.230754	0	-0.402809	-0.00975924	-1.00074	0.106659	-5.08639	273.667	35.2931	-0.207232	0	-0.768163	-0.0357842	1.92533	0.248297
0.42	3.28477	299.184	-31.6755	-0.232438	0	-0.402994	-0.0106956	-0.974182	0.103139	-5.34101	267.792	34.2282	-0.207821	0	-0.767993	-0.0392103	1.96596	0.251282
0.43	3.5451	296.232	-31.2337	-0.234101	0	-0.403171	-0.0112618	-0.94105	0.0992211	-5.68366	261.15	33.1146	-0.208275	0	-0.76785	-0.0435481	2.00093	0.253724
0.44	3.72192	293.054	-30.8648	-0.235725	0	-0.403336	-0.0114584	-0.902202	0.0950212	-6.08654	253.814	31.9719	-0.208604	0	-0.767735	-0.0486882	2.03034	0.255754
0.45	3.8179	289.689	-30.583	-0.237294	0	-0.40348	-0.0113213	-0.859022	0.0906886	-6.5199	245.899	30.8196	-0.208823	0	-0.76765	-0.0544822	2.0548	0.257538
0.46	3.83911	286.192	-30.3997	-0.238791	0	-0.403599	-0.0109104	-0.813332	0.0863934	-6.95631	237.559	29.6769	-0.208958	0	-0.767594	-0.060771	2.07534	0.259261
0.47	3.7935	282.63	-30.3223	-0.240201	0	-0.403687	-0.0102989	-0.767311	0.0823217	-7.37075	228.983	28.5632	-0.209034	0	-0.767566	-0.067378	2.0932	0.261104
0.48	3.69049	279.09	-30.3528	-0.241508	0	-0.403743	-0.00956319	-0.723208	0.0786532	-7.73885	220.385	27.4976	-0.20909	0	-0.767559	-0.0740854	2.10978	0.26324
0.49	3.54071	275.677	-30.4879	-0.2427	0	-0.403768	-0.0087724	-0.683012	0.0755362	-8.03636	211.986	26.4989	-0.209162	0	-0.767567	-0.0806138	2.12646	0.265814
0.5	3.35666	272.514	-30.7192	-0.243767	0	-0.403767	-0.0079862	-0.648367	0.0730872	-8.24075	204.005	25.5843	-0.209296	0	-0.767584	-0.0866285	2.14454	0.268948
0.51	3.15522	269.734	-31.0334	-0.244703	0	-0.403746	-0.00725885	-0.620547	0.0713951	-8.33437	196.636	24.7679	-0.209531	0	-0.7676	-0.091764	2.16502	0.272702
0.52	2.95903	267.462	-31.4132	-0.24551	0	-0.403712	-0.00664275	-0.600428	0.0705197	-8.30754	190.045	24.0608	-0.209904	0	-0.767608	-0.0956683	2.18853	0.27708
0.53	2.79488	265.799	-31.838	-0.246192	0	-0.403676	-0.00618754	-0.588448	0.0704857	-8.16124	184.36	23.4713	-0.210441	0	-0.767597	-0.09806	2.21515	0.282016
0.54	2.68902	264.806	-32.2867	-0.246761	0	-0.403644	-0.00593597	-0.584556	0.0712724	-7.90761	179.673	23.0072	-0.211159	0	-0.767562	-0.0987746	2.24431	0.287385
0.55	2.66188	264.498	-32.7374	-0.247228	0	-0.403625	-0.00591995	-0.588236	0.0728071	-7.56661	176.044	22.6761	-0.212064	0	-0.767498	-0.097782	2.27499	0.293039
0.56	2.72485	264.834	-33.1664	-0.247602	0	-0.403621	-0.00616087	-0.598787	0.0749889	-7.16	173.508	22.4838	-0.213154	0	-0.767404	-0.0951589	2.30599	0.298818
0.57	2.88149	265.725	-33.5481	-0.247891	0	-0.403636	-0.00667544	-0.615596	0.0777196	-6.70657	172.077	22.4315	-0.214418	0	-0.767278	-0.0910543	2.33627	0.30455
0.58	3.13028	267.038	-33.856	-0.248095	0	-0.403668	-0.00748308	-0.638367	0.0809345	-6.22117	171.742	22.5126	-0.215838	0	-0.767122	-0.0856812	2.36532	0.310056
0.59	3.46349	268.619	-34.0676	-0.248209	0	-0.403716	-0.0086032	-0.667243	0.084623	-5.71561	172.475	22.7119	-0.217388	0	-0.766934	-0.0793107	2.39329	0.315154
0.6	3.86281	270.331	-34.1682	-0.248222	0	-0.403775	-0.0100407	-0.702678	0.0888141	-5.19973	174.227	23.0067	-0.219033	0	-0.766716	-0.0722512	2.42092	0.319682
0.61	4.29911	272.083	-34.1539	-0.24812	0	-0.40384	-0.011778	-0.745407	0.093569	-4.68264	176.937	23.3699	-0.220732	0	-0.766469	-0.0648228	2.44938	0.323514
0.62	4.7383	273.843	-34.0316	-0.247885	0	-0.403907	-0.0137798	-0.796384	0.0989699	-4.17338	180.53	23.7734	-0.222436	0	-0.766195	-0.0573339	2.48012	0.326599
0.63	5.15122	275.638	-33.818	-0.247508	0	-0.403973	-0.0160069	-0.856515	0.105086	-3.68257	184.92	24.1932	-0.224102	0	-0.765899	-0.0500805	2.51479	0.329012
